Input #0, mov,mp4,m4a,3gp,3g2,mj2, from '/home/hbattu/projects/huberman-gpt/huberman-audio/mp3/tmp6k10tfw6.mp4':
  Metadata:
    major_brand     : dash
    minor_version   : 0
    compatible_brands: iso6mp41
    creation_time   : 2021-07-16T14:05:14.000000Z
  Duration: 02:07:00.81, start: 0.000000, bitrate: 129 kb/s
    Stream #0:0(eng): Audio: aac (LC) (mp4a / 0x6134706D), 44100 Hz, stereo, fltp, 0 kb/s (default)
    Metadata:
      creation_time   : 2021-07-16T14:05:14.000000Z
      handler_name    : ISO Media file produced by Google Inc.
Stream mapping:
  Stream #0:0 -> #0:0 (aac (native) -> mp3 (libmp3lame))
Press [q] to stop, [?] for help
[graph_0_in_0_0 @ 0x559053c07340] tb:1/44100 samplefmt:fltp samplerate:44100 chlayout:0x3
Output #0, mp3, to '../huberman-audio/mp3/aXvDEmo6uS4.mp3':
  Metadata:
    major_brand     : dash
    minor_version   : 0
    compatible_brands: iso6mp41
    TSSE            : Lavf58.29.100
    Stream #0:0(eng): Audio: mp3 (libmp3lame), 44100 Hz, stereo, fltp, delay 1105 (default)
    Metadata:
      creation_time   : 2021-07-16T14:05:14.000000Z
      handler_name    : ISO Media file produced by Google Inc.
      encoder         : Lavc58.54.100 libmp3lame
No more output streams to write to, finishing.
size=  119076kB time=02:07:00.83 bitrate= 128.0kbits/s speed=90.8x    
[AVIOContext @ 0x559053af6900] Statistics: 0 seeks, 168 writeouts
video:0kB audio:119076kB subtitle:0kB other streams:0kB global headers:0kB muxing overhead: 0.000284%
Input file #0 (/home/hbattu/projects/huberman-gpt/huberman-audio/mp3/tmp6k10tfw6.mp4):
  Input stream #0:0 (audio): 328201 packets read (121932997 bytes); 328201 frames decoded (336077824 samples); 
  Total: 328201 packets (121932997 bytes) demuxed
Output file #0 (../huberman-audio/mp3/aXvDEmo6uS4.mp3):
  Output stream #0:0 (audio): 291735 frames encoded (336077824 samples); 291736 packets muxed (121933740 bytes); 
  Total: 291736 packets (121933740 bytes) muxed
[AVIOContext @ 0x559053b1f900] Statistics: 2 seeks, 467 writeouts
[AVIOContext @ 0x559053aff880] Statistics: 123335089 bytes read, 0 seeks
